<svg width="71" height="68" viewBox="0 0 71 68" fill="none" xmlns="http://www.w3.org/2000/svg">
<path d="M3.01011 17.5921H26.0101C23.5101 31.5921 14.5101 51.0921 14.5101 51.0921H1.51001C1.51001 51.0921 2.06402 49.8111 3.01011 39.0921C3.9562 28.3731 3.01011 17.5921 3.01011 17.5921Z" fill="#D0B56E"/>
<path d="M2.01001 45.5921H18.01L14.51 51.1304C22.01 54.1304 41.51 46.6304 47.01 54.6304C47.01 54.6304 49.51 63.1304 45.51 67.1304H0C0 67.1304 0.51001 54.6304 2.01001 45.5921Z" fill="#447B2A"/>
<path d="M8.93646 19.7431L29.5794 9.6007C33.5093 23.2684 34.0306 44.7388 34.0306 44.7388L22.3628 50.4715C22.3628 50.4715 22.2951 49.0775 18.4174 39.0398C14.5397 29.0021 8.93646 19.7431 8.93646 19.7431Z" fill="#F9D781"/>
<path d="M20.3862 45.3147L34.7466 38.2591L34.0475 44.7733C42.1018 44.1585 56.2961 28.8281 64.7603 33.5829C64.7603 33.5829 70.7524 40.1094 68.9262 45.4633L25.8453 66.6302C25.8453 66.6302 23.0257 54.0882 20.3862 45.3147Z" fill="#57A333"/>
</svg>
