<svg width="67" height="68" viewBox="0 0 67 68" fill="none" xmlns="http://www.w3.org/2000/svg">
<path d="M7.01011 17.5921H30.0101C27.5101 31.5921 18.5101 51.0921 18.5101 51.0921H5.51001C5.51001 51.0921 6.06402 49.8111 7.01011 39.0921C7.9562 28.3731 7.01011 17.5921 7.01011 17.5921Z" fill="#D0B56E"/>
<path d="M6.01001 45.5921H22.01L18.51 51.1304C26.01 54.1304 45.51 46.6304 51.01 54.6304C51.01 54.6304 53.51 63.1304 49.51 67.1304H4C4 67.1304 4.51001 54.6304 6.01001 45.5921Z" fill="#303C2B"/>
<path d="M4.93646 19.7431L25.5794 9.6007C29.5093 23.2684 30.0306 44.7388 30.0306 44.7388L18.3628 50.4715C18.3628 50.4715 18.2951 49.0775 14.4174 39.0398C10.5397 29.0021 4.93646 19.7431 4.93646 19.7431Z" fill="#F9D781"/>
<path d="M16.3861 45.3147L30.7464 38.2591L30.0474 44.7733C38.1017 44.1585 52.296 28.8281 60.7602 33.5829C60.7602 33.5829 66.7523 40.1094 64.9261 45.4633L21.8452 66.6302C21.8452 66.6302 19.0255 54.0882 16.3861 45.3147Z" fill="#415135"/>
</svg>
